<?xml version="1.0" encoding="UTF-8" standalone="no"?>
<svg
   xmlns:dc="http://purl.org/dc/elements/1.1/"
   xmlns:cc="http://creativecommons.org/ns#"
   xmlns:rdf="http://www.w3.org/1999/02/22-rdf-syntax-ns#"
   xmlns:svg="http://www.w3.org/2000/svg"
   xmlns="http://www.w3.org/2000/svg"
   viewBox="0 0 232 274.66666"
   height="274.66666"
   width="232"
   xml:space="preserve"
   id="svg2"
   version="1.1"><metadata
     id="metadata8"><rdf:RDF><cc:Work
         rdf:about=""><dc:format>image/svg+xml</dc:format><dc:type
           rdf:resource="http://purl.org/dc/dcmitype/StillImage" /></cc:Work></rdf:RDF></metadata><defs
     id="defs6" /><g
     transform="matrix(1.3333333,0,0,-1.3333333,0,274.66667)"
     id="g10"><g
       transform="scale(0.1)"
       id="g12"><path
         id="path14"
         style="fill:#cab373;fill-opacity:1;fill-rule:evenodd;stroke:none"
         d="m 695.121,534.141 c -16.141,1.289 -27.699,6.449 -34.812,15.429 -6.758,9.02 -11.559,20.629 -14.489,34.809 -2.851,13.859 -6.601,28.633 -11.09,44.41 -2.89,4.18 -3.05,8.711 -0.468,13.551 2.886,4.5 6.09,9.34 9.648,14.5 3.86,5.109 5.469,10.582 4.84,16.398 -22.23,-1.91 -46.52,-4.957 -72.969,-9.179 -26.371,-3.86 -52.929,-8.508 -79.691,-13.981 -26.36,-5.156 -50.699,-10.156 -72.891,-15 -22.219,-5.156 -40.109,-9.648 -53.629,-13.519 -53.121,-14.18 -80.308,-30.43 -81.601,-48.75 3.511,-25.149 51.011,-46.09 142.461,-62.809 91.449,-17.07 206.25,-25.781 344.371,-26.09 100.789,0 190.32,4.801 268.559,14.488 78.24,9.653 137.03,22.34 176.29,38.161 -7.38,-1.598 -14.96,-2.418 -22.7,-2.418 H 695.121" /><path
         id="path16"
         style="fill:#9c660f;fill-opacity:1;fill-rule:evenodd;stroke:none"
         d="m 562.301,1453.79 c -57.653,-1.29 -105.621,-21.09 -143.942,-59.45 -38.32,-38.29 -58.281,-86.45 -59.918,-144.42 6.168,-96.25 52.969,-160.82 140.579,-193.67 -13.239,-16.09 -20.11,-35.23 -20.782,-57.461 0.313,-13.199 3.09,-25.937 8.211,-38.168 -5.469,-11.562 -8.211,-24.141 -8.211,-37.652 0.313,-19.34 5.473,-36.559 15.434,-51.68 -91.762,18.012 -166.91,61.641 -225.512,130.901 -58.32,68.9 -88.43,151.48 -90.351,247.73 2.582,108.83 40.281,199.53 113.011,271.96 72.149,72.46 162.66,109.96 271.481,112.53 85.937,-1.29 161.449,-25.78 226.488,-73.43 64.731,-47.66 110.621,-110.12 137.66,-187.39 h 31.91 c -31.25,87.58 -83.558,158.25 -156.988,212.03 -73.441,54.42 -158.91,82.27 -256.492,83.6 -123.32,-3.24 -226.168,-45.9 -308.629,-128.01 -81.762,-82.11 -124.301,-184.84 -127.5,-308.16 3.199,-123.32 45.898,-226.21 128.012,-308.64 82.109,-82.109 184.797,-124.609 308.117,-127.5 7.109,-0.351 14.18,-0.351 21.25,0 3.25,0.281 5.473,2.07 6.801,5.32 0.308,2.852 0.16,5.622 -0.508,8.161 -0.621,1.289 -1.442,2.269 -2.383,2.929 -13.867,7.731 -20.98,19.45 -21.25,35.231 0,2.621 0.27,5.32 0.941,8.25 0.622,5.469 -1.449,8.859 -6.25,10.148 -19.339,6.102 -29.652,19.141 -30.941,39.102 0.313,12.23 5.473,22.39 15.43,30.429 1.953,1.918 2.929,4.34 2.929,7.231 0.352,2.578 -0.668,4.84 -2.929,6.758 -9.957,7.73 -15.117,18.051 -15.43,30.902 1.289,20.309 11.762,33.199 31.41,38.669 2.571,0.62 4.332,1.95 5.27,3.87 1.332,2.26 1.64,4.49 0.98,6.75 -0.98,3.56 -1.41,7.23 -1.41,11.1 0,9.37 3.051,17.73 9.141,25.12 1.949,2.92 2.269,5.97 0.98,9.17 -1.961,3.25 -4.648,4.85 -8.211,4.85 h -5.82 c -42.809,0.98 -78.551,15.78 -107.18,44.45 -28.988,28.63 -43.988,64.57 -44.969,107.7 0.981,42.81 15.981,78.55 44.969,107.22 28.629,28.99 64.371,43.95 107.18,44.93 20.633,-0.32 39.922,-4.22 57.973,-11.61 h 121.25 c -39.653,50.86 -93.551,77.62 -161.801,80.2" /><path
         id="path18"
         style="fill:#cab373;fill-opacity:1;fill-rule:evenodd;stroke:none"
         d="m 321.762,1274.1 c 0.308,5.16 1.09,8.52 2.418,10.16 -0.981,-3.24 -1.758,-6.64 -2.418,-10.16 -1.332,-14.49 1.289,-43.48 7.687,-86.95 8.403,-58.6 54.461,-107.07 138.172,-145.39 -3.211,-0.94 -20.742,3.24 -52.66,12.58 -32.191,10 -60.512,32.38 -85,67.11 -22.891,33.16 -25.582,84.06 -8.199,152.65 m 249.218,333.24 c 77.891,-1.56 146.52,-23.63 205.739,-66.13 59.261,-42.54 101.801,-98.55 127.5,-168.12 h 22.73 c -27.34,77.3 -73.59,139.76 -138.629,187.46 -64.73,47.93 -140.082,72.57 -226.019,73.86 -108.821,-2.89 -199.492,-40.43 -271.91,-112.53 -72.153,-72.43 -109.692,-163.13 -112.582,-271.96 2.269,-96.6 32.543,-179.33 90.82,-248.24 58.601,-68.91 133.793,-112.379 225.551,-130.391 -10.309,15.121 -15.629,32.191 -15.942,51.172 0,13.519 2.934,26.25 8.672,38.16 -5.738,11.609 -8.672,24.149 -8.672,37.66 0.313,21.919 7.274,41.249 20.782,57.969 -87.61,32.54 -134.411,97.07 -140.579,193.67 1.637,57.35 21.598,105.35 59.918,143.99 38.629,38.28 86.602,58.24 143.942,59.88 68.597,-2.58 122.5,-29.49 161.801,-80.7 h 157.457 c -33.161,60.54 -79.219,108.67 -138.161,144.41 -58.597,35.78 -124.57,54.14 -198.007,55.12 -91.129,-1.64 -170.192,-28.83 -237.192,-81.68 67.973,74.41 155.551,113.2 262.781,116.4" /><path
         id="path20"
         style="fill:#3d2e00;fill-opacity:1;fill-rule:evenodd;stroke:none"
         d="M 1378.05,1339.3 H 595.621 V 634.102 c 0,-9.024 1.098,-17.543 3.359,-25.582 14.809,-46.372 47.04,-71.141 96.61,-74.379 h 501.83 c 7.74,0.308 15.16,1.089 22.23,2.418 47.97,14.14 73.75,46.679 77.3,97.543 v 102.929 c 25.43,-12.582 52.46,-19.019 81.1,-19.332 65.07,1.91 118.71,31.832 160.86,89.801 42.18,57.969 64.1,131.719 65.66,221.25 -1.56,88.87 -23.48,162.42 -65.66,220.7 -42.15,57.66 -95.79,87.58 -160.86,89.85 M 1143.83,671.801 v 607.609 h 51.68 V 671.801 c -2.27,-26.41 -16.6,-40.75 -42.97,-43.012 h -51.72 c 26.41,2.262 40.74,16.602 43.01,43.012 m 234.22,140.539 c -31.21,1.332 -58.25,17.539 -81.1,48.789 v 334.731 c 22.85,31.56 49.89,47.81 81.1,48.75 36.09,-1.91 66.36,-23.32 90.86,-64.22 24.76,-41.21 37.65,-91.76 38.63,-151.64 -1.33,-60.23 -14.18,-110.941 -38.63,-152.148 -24.81,-41.211 -55.12,-62.653 -90.86,-64.262 m 29.96,499.89 c 4.84,1.99 27.54,-8.52 68.12,-31.37 40.24,-23.2 68.28,-73.13 84.03,-149.77 0,4.85 -12.89,29.65 -38.64,74.42 -25.43,44.41 -63.28,80 -113.51,106.72" /><path
         id="path22"
         style="fill:#a8a8a8;fill-opacity:1;fill-rule:evenodd;stroke:none"
         d="m 1199.84,1374.1 c 0.36,0 0.63,0.12 0.98,0.47 1.91,0.94 2.58,2.58 1.91,4.84 -17.03,39.93 -24.96,83.4 -23.63,130.39 1.92,49.61 15.9,100.12 41.99,151.68 15.79,29.93 26.57,60 32.39,90.28 6.09,30.62 7.54,60.58 4.33,89.84 -7.11,55.7 -27.07,100.51 -59.88,134.3 -1.95,1.29 -3.71,1.44 -5.31,0.47 -1.96,-1.6 -2.42,-3.36 -1.45,-5.28 16.06,-40.27 22.81,-83.9 20.28,-130.89 -2.27,-49.61 -16.76,-100.16 -43.48,-151.68 -15.16,-30.28 -25.74,-60.55 -31.92,-90.82 -5.74,-30.55 -6.71,-60.67 -2.85,-90.32 8.05,-55.08 28.79,-99.33 62.31,-132.81 0.94,-0.35 1.76,-0.47 2.42,-0.47 0.27,-0.35 0.62,-0.51 0.94,-0.51 0.35,0 0.62,0.16 0.97,0.51 m -193.67,83.52 c 1.25,-0.63 2.38,-0.94 3.4,-0.94 0.63,0 1.25,0.31 1.91,0.94 1.92,0.97 2.54,2.58 1.92,4.84 -17.072,39.92 -24.92,83.4 -23.67,130.39 1.95,49.61 15.93,100.16 42.03,151.68 15.78,29.96 26.6,60.08 32.34,90.31 6.13,30.28 7.62,60.24 4.34,89.85 -7.03,55.7 -26.99,100.31 -59.89,133.79 -1.91,1.6 -3.67,1.95 -5.31,0.97 -1.91,-1.64 -2.58,-3.4 -1.91,-5.31 16.09,-40.23 23.01,-83.91 20.78,-130.9 -2.27,-49.88 -16.76,-100.47 -43.481,-151.68 -15.469,-30.23 -26.09,-60.66 -31.867,-91.25 -5.821,-30.62 -6.961,-60.54 -3.403,-89.84 8.403,-55.08 29.34,-99.34 62.811,-132.85 m -174.369,168.55 c -25.75,21.95 -42.153,49.81 -49.262,83.6 -4.18,18.04 -4.687,36.71 -1.488,56.05 3.558,20.59 9.89,39.57 18.871,56.95 l 3.359,6.29 1.949,5.32 c 1.29,3.55 2.739,7.07 4.379,10.62 2.231,7.11 4.34,14.49 6.25,22.23 3.551,14.49 5.313,28.98 5.313,43.47 0.308,27.35 -5.313,54.73 -16.91,82.11 -0.633,1.92 -0.313,3.52 0.968,4.85 1.61,1.25 3.399,1.25 5.321,0 25.109,-22.23 41.398,-49.93 48.789,-83.09 4.18,-17.73 4.961,-35.9 2.422,-54.57 -1.293,-9.69 -3.211,-19.34 -5.821,-28.98 -1.601,-4.54 -3.211,-9.22 -4.851,-14.07 -0.93,-2.22 -1.91,-4.61 -2.852,-7.22 -0.968,-2.23 -2.109,-4.65 -3.398,-7.23 -0.621,-0.66 -0.969,-1.13 -0.969,-1.45 l -0.473,-0.97 c -7.07,-12.54 -12.699,-26.88 -16.918,-43.01 -3.859,-14.77 -5.781,-29.45 -5.781,-43.95 -0.66,-26.71 5.16,-54.06 17.391,-82.1 1.289,-1.92 0.93,-3.72 -0.981,-5.28 -0.66,-0.35 -1.449,-0.51 -2.418,-0.51 -1.293,0 -2.269,0.32 -2.89,0.94" /><path
         id="path24"
         style="fill:#ffffff;fill-opacity:1;fill-rule:evenodd;stroke:none"
         d="m 877.539,906.02 c 0,-9.071 -2.148,-18.008 -6.449,-26.84 -4.289,-8.828 -10.07,-16.801 -17.301,-23.91 -7.23,-7.149 -15.699,-13.391 -25.391,-18.79 -9.687,-5.39 -19.918,-9.921 -30.699,-13.589 C 776.602,815.512 755,811.84 732.93,811.84 c -9.301,0 -18.008,0.742 -26.09,2.219 11.988,43.91 21.558,88.171 28.672,132.82 7.109,44.641 13.976,89.531 20.617,134.641 34.34,7.11 62.422,10.67 84.223,10.67 25.777,0 43.668,-8.83 53.75,-26.49 3.91,-6.64 5.859,-14.76 5.859,-24.45 0,-9.69 -1.52,-18.71 -4.57,-27.07 -3.09,-8.32 -7.071,-15.942 -11.993,-22.809 -10.039,-13.711 -22.07,-23.172 -36.058,-28.32 20.121,-12.27 30.199,-31.25 30.199,-57.031 z m -96.758,-18.008 c 22.309,2.457 38.008,8.707 47.071,18.75 3.949,4.41 5.898,9.328 5.898,14.718 0,5.399 -1.172,9.61 -3.52,12.7 -2.3,3.05 -5.308,5.59 -8.98,7.539 -7.379,3.902 -15.352,5.902 -23.949,5.902 h -3.281 c -0.969,0 -1.989,-0.16 -2.969,-0.391 -0.973,-6.14 -1.871,-11.531 -2.731,-16.179 -0.859,-4.68 -1.679,-9.141 -2.379,-13.43 -0.742,-4.301 -1.562,-8.75 -2.421,-13.441 -0.86,-4.649 -1.758,-10.039 -2.739,-16.168 z m 19.098,105.578 c 30.672,6.88 46.019,15.32 46.019,25.39 0,9.57 -7.847,15.55 -23.558,18.01 -3.942,0.74 -7.34,1.13 -10.309,1.13 h -4.019 c -0.512,-2.73 -1.063,-5.97 -1.684,-9.76 -0.59,-3.79 -1.289,-7.74 -2.027,-11.76 -0.711,-4.06 -1.531,-8.12 -2.391,-12.15 -0.859,-4.06 -1.519,-7.649 -2.031,-10.86 z M 929.77,824.73 871.641,812.582 c 21.839,114.059 37.769,204.798 47.808,272.258 l 61.102,4.42 c -9.813,-41.21 -17.781,-78.24 -23.91,-111.139 l 37.148,4.418 c 3.441,17.661 6.561,34.921 9.371,51.721 2.82,16.79 6.45,34.02 10.86,51.68 9.81,1.72 20.24,3.01 31.29,3.86 11.02,0.86 18.64,1.41 22.78,1.65 l 6.29,0.74 c -12.04,-39.26 -23.79,-94.299 -35.36,-165.202 -5.62,-31.867 -10.78,-64.488 -15.43,-97.847 L 964.73,822.5 c 3.2,14.961 6.051,29.059 8.629,42.301 2.582,13.289 5.161,26.371 7.731,39.379 2.582,13.011 4.73,24.179 6.449,33.48 l -36.801,-3.281 C 945.121,903.199 938.121,866.68 929.77,824.73 Z" /><path
         id="path26"
         style="fill:#3f2e00;fill-opacity:1;fill-rule:nonzero;stroke:none"
         d="m 185.699,113.98 c 0,-9.921 -2.34,-19.6792 -7.027,-29.3706 C 174.059,75 167.809,66.3711 159.922,58.6719 152.109,50.9414 142.891,44.1406 132.27,38.1992 121.719,32.3398 110.59,27.4609 98.8281,23.5195 75.8984,15.4688 52.4219,11.4805 28.3594,11.4805 18.2383,11.4805 8.75,12.2695 -0.078125,13.8281 13.0508,61.6406 23.4414,109.801 31.1719,158.359 c 7.8086,48.629 15.3086,97.5 22.5,146.563 37.3789,7.699 67.9691,11.558 91.7191,11.558 28.007,0 47.5,-9.601 58.437,-28.75 4.262,-7.179 6.402,-16.089 6.402,-26.71 0,-10.551 -1.679,-20.321 -5,-29.379 -3.351,-9.063 -7.73,-17.34 -13.121,-24.84 -10.937,-14.922 -24.019,-25.16 -39.218,-30.781 21.879,-13.36 32.808,-34.032 32.808,-62.04 z M 80.5508,94.3008 c 24.2502,2.6875 41.3282,9.5272 51.2502,20.4692 4.25,4.761 6.398,10.07 6.398,15.929 0,5.942 -1.32,10.551 -3.898,13.91 -2.5,3.321 -5.781,6.012 -9.852,8.121 -7.929,4.258 -16.558,6.411 -25.9295,6.411 h -3.5976 c -1.0508,0 -2.1524,-0.121 -3.2813,-0.313 -1.0508,-6.68 -2.0312,-12.578 -2.9687,-17.656 -0.9414,-5.121 -1.8321,-10 -2.6524,-14.692 -0.75,-4.601 -1.5703,-9.449 -2.5,-14.531 -0.9414,-5.109 -1.9609,-11.008 -2.9687,-17.6482 z M 101.328,209.301 c 33.32,7.379 50,16.558 50,27.5 0,10.39 -8.558,16.949 -25.629,19.679 -4.289,0.821 -8.039,1.25 -11.25,1.25 h -4.371 c -0.547,-2.929 -1.168,-6.48 -1.879,-10.621 -0.621,-4.179 -1.359,-8.437 -2.179,-12.808 -0.75,-4.379 -1.571,-8.832 -2.5,-13.281 -0.942,-4.379 -1.68,-8.29 -2.192,-11.719 z M 253.91,83.0508 237.5,24.3008 c -6.172,-0.8594 -13.359,-1.8008 -21.559,-2.8203 -8.132,-1.0508 -16.211,-2.0313 -24.222,-2.961 -7.93,-0.9414 -16.129,-2 -24.688,-3.1289 10.938,36.3282 20.199,67.0703 27.809,92.1874 7.582,25.082 13.789,45.703 18.601,61.871 4.758,16.141 9.528,32.11 14.219,47.973 4.68,15.937 9.219,31.289 13.59,46.098 4.371,14.761 8.32,28.32 11.871,40.621 49.379,3.437 86.957,7.699 112.82,12.808 -2.421,-26.48 -4.382,-57.73 -5.941,-93.75 -3.551,-71.789 -6.52,-137.9685 -8.91,-198.5896 -7.93,-1.25 -15.738,-2.461 -23.43,-3.5899 -7.621,-1.0586 -15.469,-2.2695 -23.601,-3.5976 -8.118,-1.3711 -15.539,-2.5821 -22.18,-3.5938 2.891,25.6211 5.461,48.6719 7.652,69.2227 z m 9.531,40.9292 29.68,2.04 c 0,1.558 0.199,4.25 0.629,8.121 0.391,3.828 0.859,8.32 1.41,13.437 2.07,28.512 4.289,55.082 6.719,79.692 l 2.812,35.621 -6.41,-0.469 z" /><path
         id="path28"
         style="fill:#3f2e00;fill-opacity:1;fill-rule:nonzero;stroke:none"
         d="m 526.91,238.051 c -4.488,20.308 -12.34,30.469 -23.59,30.469 -6.992,0 -14.531,-4.93 -22.66,-14.692 -8.121,-9.687 -15.781,-22.148 -22.961,-37.348 -16.371,-35.539 -25.078,-70.39 -26.097,-104.531 0,-17.1092 2.539,-29.2185 7.66,-36.3982 5.078,-7.1914 10.968,-10.7813 17.648,-10.7813 6.641,0 12.891,1.3203 18.75,4.0586 5.82,2.8125 11.02,6.6407 15.629,11.5625 10.699,11.1289 16.332,24.3004 16.871,39.5314 l -43.75,-6.402 7.66,40.46 c 37.578,4.77 71.328,9.848 101.25,15.161 -1.871,-27.731 -7.34,-51.95 -16.41,-72.6605 C 547.852,75.8594 536.949,58.5508 524.262,44.6094 511.641,30.7383 498.012,20.3086 483.32,13.3594 468.629,6.48047 455.43,3.05078 443.789,3.05078 c -11.559,0 -21.879,2.25781 -30.937,6.71875 -9.063,4.37107 -16.954,11.08987 -23.59,20.15237 -14.492,19.1367 -21.723,46.1289 -21.723,80.9371 0,34.879 5.039,65.391 15.16,91.563 10.192,26.129 22.961,47.969 38.281,65.469 15.391,17.5 31.95,30.507 49.68,39.058 17.699,8.52 33.129,12.821 46.25,12.821 13.129,0 23.641,-1.961 31.57,-5.79 8,-3.859 14.571,-9.019 19.68,-15.46 10.078,-12.309 15.16,-28.872 15.16,-49.692 z" /><path
         id="path30"
         style="fill:#3f2e00;fill-opacity:1;fill-rule:nonzero;stroke:none"
         d="m 558.629,12.5781 53.601,291.5629 129.68,11.25 c -1.871,-6.172 -3.512,-12.11 -4.84,-17.813 -1.25,-5.738 -2.582,-11.406 -3.91,-17.027 -1.359,-5.629 -2.461,-10.59 -3.281,-14.852 -8.039,-0.859 -18.981,-1.25 -32.809,-1.25 h -27.66 l -14.371,-73.59 c 14.691,0.7 26.949,1.25 36.871,1.563 9.891,0.308 16.289,0.547 19.219,0.777 -1.051,-7.73 -2.027,-15.269 -2.969,-22.648 -0.93,-7.313 -2.109,-14.813 -3.43,-22.5 -2.929,-0.321 -7.46,-0.59 -13.601,-0.781 -6.168,-0.122 -12.578,-0.321 -19.219,-0.629 -6.68,-0.231 -14.18,-0.43 -22.5,-0.621 l -13.898,-75.7895 59.527,9.6914 -3.91,-46.8711 z" /><path
         id="path32"
         style="fill:#3f2e00;fill-opacity:1;fill-rule:nonzero;stroke:none"
         d="m 773.121,70.6992 c 10.199,0.8203 24.379,1.25 42.5,1.25 0.508,-10.4297 1.289,-18.8984 2.348,-25.4687 1.011,-6.5586 1.761,-11.4024 2.191,-14.5313 0.391,-3.039 0.781,-5.0703 1.09,-6.0898 l -12.5,0.4687 c -28.051,0 -55.898,-2.5781 -83.59,-7.6562 -9.07,-1.8711 -17.351,-4.0235 -24.851,-6.4024 6.332,49.3711 14.769,101.2505 25.312,155.6215 10.629,54.449 19.609,100.308 27.039,137.5 l 72.18,9.531 C 799.922,209.801 785.391,145.23 781.25,121.172 777.191,97.1094 774.449,80.2695 773.121,70.6992 Z" /><path
         id="path34"
         style="fill:#3f2e00;fill-opacity:1;fill-rule:nonzero;stroke:none"
         d="m 821.602,12.2695 c 23.75,124.0585 41.097,222.8085 52.027,296.2505 l 66.57,4.839 c -10.75,-44.918 -19.461,-85.238 -26.097,-120.937 l 40.468,4.848 c 3.75,19.14 7.11,37.851 10.16,56.089 3.122,18.321 7.071,37.11 11.872,56.411 10.628,1.871 21.918,3.281 33.908,4.21 12.07,0.942 20.35,1.489 24.84,1.719 l 6.88,0.781 C 1029.1,273.75 1016.29,213.871 1003.79,136.801 997.621,102.109 991.988,66.5586 986.91,30.2305 l -64.058,-7.1797 c 3.519,16.25 6.718,31.5586 9.527,45.9297 2.82,14.4609 5.551,28.789 8.281,42.9685 2.82,14.141 5.16,26.289 7.039,36.41 l -40,-3.589 C 901.52,110.898 893.949,71.0898 884.879,25.3906 Z" /><path
         id="path36"
         style="fill:#3f2e00;fill-opacity:1;fill-rule:nonzero;stroke:none"
         d="m 1172.27,200.391 c 0,22.187 -6.41,33.281 -19.22,33.281 -16.25,0 -30.9,-8.051 -43.91,-24.063 -10.43,-12.808 -19.37,-30.269 -26.87,-52.339 -5.86,-18.25 -8.75,-35.321 -8.75,-51.25 0,-10.7505 4.53,-18.7505 13.59,-24.0708 2.58,-1.8711 5.66,-2.8086 9.22,-2.8086 12.19,0 23.01,4.1407 32.5,12.5 9.45,8.4374 17.38,18.7894 23.75,31.0894 6.44,12.27 11.33,25.391 14.69,39.379 3.32,14.063 5,26.801 5,38.282 z m 56.87,25.308 c 0,-16.359 -2.34,-34.449 -7.03,-54.219 -4.61,-19.679 -10.9,-37.808 -18.91,-54.371 -8.04,-16.558 -17.34,-31.4098 -27.97,-44.5309 -10.54,-13.0468 -21.52,-24.0586 -32.96,-33.1289 -23.75,-18.6679 -46.57,-27.9687 -68.44,-27.9687 -18.44,0 -32.97,6.6406 -43.6,20 -11.79,14.6914 -17.65,36.0195 -17.65,64.0703 0,30.3902 7.07,63.1992 21.25,98.4292 14.14,35.321 32.69,64.692 55.62,88.129 24.77,25.082 50.82,37.661 78.13,37.661 22.38,0 38.79,-9.071 49.22,-27.192 8.2,-14.687 12.34,-36.988 12.34,-66.879 z" /><path
         id="path38"
         style="fill:#3f2e00;fill-opacity:1;fill-rule:nonzero;stroke:none"
         d="m 1256.91,304.609 c 5.82,0.512 12.66,1.129 20.47,1.871 7.89,0.821 15.67,1.571 23.28,2.192 7.58,0.707 15.55,1.488 23.91,2.348 -6.99,-32.93 -12.5,-59.032 -16.56,-78.29 -3.99,-19.179 -7.15,-34.492 -9.53,-45.929 -2.43,-11.492 -4.53,-22 -6.41,-31.571 -4.3,-20.308 -7.11,-33.55 -8.44,-39.679 -3.98,-18.4416 -5.93,-30.3205 -5.93,-35.6291 0,-5.3125 1.09,-9.3711 3.28,-12.1914 2.26,-2.8086 5.35,-4.211 9.22,-4.211 3.94,0 7.42,1.8711 10.46,5.6211 3.13,3.75 5.67,8.1289 7.66,13.1289 1.95,5.0703 3.48,10.3086 4.53,15.6211 1.13,5.3904 2.27,10.8204 3.44,16.2504 1.25,5.507 2.85,13.129 4.84,22.808 1.96,9.77 3.95,19.93 5.94,30.473 1.95,10.508 4.06,21.25 6.25,32.187 5.63,28.012 12.19,63.512 19.69,106.563 l 62.03,3.906 -2.03,-10.308 c -3.24,-16.879 -6.8,-36.329 -10.63,-58.29 -3.86,-21.992 -7.42,-41.011 -10.62,-57.031 -8.24,-41.679 -14.38,-71.25 -18.44,-88.7498 -3.98,-17.5 -9.49,-31.7187 -16.56,-42.6484 -7.11,-10.9414 -15.31,-20 -24.69,-27.1914 -17.81,-13.3203 -38.52,-20.00002 -62.03,-20.00002 -14.38,0 -26.8,4.01953 -37.19,12.03122 -11.8,9.5703 -17.65,22.2305 -17.65,37.9688 0,1.0195 0,2.0703 0,3.1211 0,1.1406 0.31,4.7695 0.93,10.9414 0.71,6.1289 2.27,17.1094 4.69,32.9691 2.38,15.937 5,32.5 7.81,49.687 2.82,17.192 5.78,34.41 8.91,51.723 3.2,17.379 6.17,33.16 8.91,47.34 5.82,30.39 9.29,48.05 10.46,52.968 z" /><path
         id="path40"
         style="fill:#3f2e00;fill-opacity:1;fill-rule:nonzero;stroke:none"
         d="m 1524.22,222.422 c 1.33,5.308 2.03,10.859 2.03,16.719 0,5.937 -1.48,10.66 -4.37,14.218 -2.93,3.629 -6.06,5.469 -9.38,5.469 -3.36,0 -6.64,-0.777 -9.84,-2.348 -3.25,-1.558 -6.41,-3.71 -9.54,-6.402 -7.5,-6.168 -11.24,-12.777 -11.24,-19.848 0,-7.109 1.87,-12.808 5.62,-17.179 3.75,-4.379 8.32,-8.442 13.75,-12.192 5.51,-3.75 11.45,-7.66 17.81,-11.718 6.45,-3.981 12.42,-9.02 17.97,-15.161 12.81,-14.921 19.22,-34.8 19.22,-59.679 0,-29.9221 -10.94,-54.6096 -32.81,-74.0705 -20.86,-18.6719 -47.15,-27.961 -78.91,-27.961 -23.44,0 -44.92,12.2618 -64.37,36.8711 l 30.46,59.5314 c 3.76,-7.422 10.94,-14.1837 21.57,-20.3126 10.7,-6.4805 18.75,-9.6875 24.06,-9.6875 5.31,0 9.73,0.5078 13.28,1.5586 3.63,1.1406 6.92,2.7383 9.85,4.8476 6.64,4.7617 10,10.543 10,17.3439 0,6.879 -2.15,13.129 -6.41,18.75 -4.3,5.629 -9.53,10.937 -15.78,15.937 -6.25,5.082 -13.09,10.231 -20.47,15.469 -7.31,5.192 -14.02,10.703 -20.16,16.563 -14.92,13.437 -22.34,27.418 -22.34,42.031 0,14.687 4.14,28.168 12.5,40.469 8.44,12.269 18.98,22.89 31.72,31.879 12.69,8.941 26.56,16.011 41.56,21.25 15.08,5.191 27.85,7.808 38.28,7.808 10.39,0 18.91,-0.937 25.47,-2.808 6.56,-1.879 12.23,-4.692 17.03,-8.442 10.39,-8.558 15.63,-21.098 15.63,-37.656 0,-3.981 -0.39,-7.813 -1.1,-11.563 -0.62,-3.75 -1.21,-7.929 -1.72,-12.5 z" /><path
         id="path42"
         style="fill:#3f2e00;fill-opacity:1;fill-rule:nonzero;stroke:none"
         d="m 1553.98,12.5781 53.6,291.5629 129.69,11.25 c -1.88,-6.172 -3.52,-12.11 -4.85,-17.813 -1.25,-5.738 -2.58,-11.406 -3.9,-17.027 -1.37,-5.629 -2.47,-10.59 -3.29,-14.852 -8.04,-0.859 -18.98,-1.25 -32.81,-1.25 h -27.65 l -14.38,-73.59 c 14.69,0.7 26.95,1.25 36.88,1.563 9.88,0.308 16.28,0.547 19.21,0.777 -1.05,-7.73 -2.03,-15.269 -2.96,-22.648 -0.94,-7.313 -2.11,-14.813 -3.44,-22.5 -2.93,-0.321 -7.46,-0.59 -13.6,-0.781 -6.17,-0.122 -12.57,-0.321 -19.21,-0.629 -6.68,-0.231 -14.18,-0.43 -22.5,-0.621 l -13.91,-75.7895 59.53,9.6914 -3.91,-46.8711 z" /></g></g></svg>